<svg data-v-423bf9ae="" xmlns="http://www.w3.org/2000/svg" viewBox="0 0 433 90" class="iconLeft"><!----><!----><!----><g data-v-423bf9ae="" id="f6081af2-84ba-4a65-91c0-e36950461dac" fill="#0F2020" transform="matrix(6.211180222334461,0,0,6.211180222334461,147.70117450758647,-33.01242466762572)"><path d="M8.65 7.73Q9.17 7.83 9.33 7.89Q9.49 7.95 9.55 8.08L9.55 8.08Q9.25 9.21 8.78 11.29Q8.30 13.37 8.13 14.08L8.13 14.08Q7.83 15.51 7.56 16.62L7.56 16.62Q7.36 17.39 6.94 17.39L6.94 17.39Q5.84 17.39 5.68 16.94L5.68 16.94L5.66 16.97L3.37 10.86L2.51 14.39Q2.25 15.36 1.96 16.58L1.96 16.58Q1.86 16.98 1.66 17.12Q1.46 17.26 0.90 17.26L0.90 17.26Q0.46 17.26 0.26 17.12Q0.06 16.97 0.06 16.62L0.06 16.62Q0.06 16.46 0.10 16.32L0.10 16.32L2.02 8.75Q2.17 8.13 2.35 7.93Q2.52 7.73 2.98 7.73L2.98 7.73Q3.36 7.73 3.65 7.81Q3.95 7.90 3.96 8.06L3.96 8.06L3.96 8.11L6.22 14.35Q7.13 9.95 7.38 9.18L7.38 9.18Q7.57 8.60 7.91 8.20Q8.25 7.81 8.65 7.73L8.65 7.73ZM3.95 8.05L3.95 8.05ZM5.66 16.79L5.66 16.79ZM12.67 17.37Q11.44 17.37 10.75 16.53Q10.07 15.69 10.07 14.39L10.07 14.39Q10.07 13.30 10.59 12.33Q11.12 11.37 12.03 10.78Q12.94 10.19 14.03 10.19L14.03 10.19Q15.11 10.19 15.80 10.90Q16.49 11.61 16.49 12.98L16.49 12.98Q16.49 13.94 15.96 14.98Q15.43 16.02 14.54 16.70Q13.65 17.37 12.67 17.37L12.67 17.37ZM12.88 16.25Q13.33 16.25 13.78 15.69Q14.24 15.13 14.53 14.28Q14.83 13.43 14.83 12.61L14.83 12.61Q14.83 11.37 13.79 11.37L13.79 11.37Q13.22 11.37 12.74 11.91Q12.26 12.46 11.98 13.27Q11.70 14.07 11.70 14.77L11.70 14.77Q11.70 15.18 11.89 15.52Q12.07 15.86 12.34 16.06Q12.61 16.25 12.88 16.25L12.88 16.25ZM18.72 17.37Q18.24 17.28 18.05 17.18Q17.85 17.08 17.79 16.91Q17.74 16.74 17.72 16.34L17.72 16.34Q17.68 15.39 17.60 14.45L17.60 14.45Q17.58 14.22 17.51 13.12Q17.44 12.01 17.44 11.02L17.44 11.02Q17.44 10.77 17.70 10.60Q17.96 10.43 18.35 10.43L18.35 10.43Q19.11 10.43 19.11 11.12L19.11 11.12L19.12 14.95L19.12 15.93Q20.06 14.17 21.25 12.29Q22.43 10.42 22.78 10.42L22.78 10.42Q23.23 10.42 23.53 10.59Q23.84 10.77 23.86 10.99L23.86 10.99Q23.73 11.23 23.31 11.86L23.31 11.86Q23.14 12.10 22.71 12.78L22.71 12.78L22.22 13.55Q21.04 15.39 20.58 16.07Q20.12 16.74 19.80 17.04L19.80 17.04Q19.64 17.18 19.35 17.28Q19.05 17.37 18.72 17.37L18.72 17.37ZM28.95 16.35Q28.98 16.72 29.05 17.01L29.05 17.01Q29.02 17.09 28.80 17.18Q28.59 17.26 28.43 17.26L28.43 17.26Q27.93 17.26 27.71 17.12Q27.50 16.97 27.50 16.67L27.50 16.67Q27.50 16.39 27.55 16.11L27.55 16.11Q27.24 16.53 26.65 16.81Q26.05 17.08 25.69 17.08L25.69 17.08Q24.75 17.08 24.13 16.53Q23.51 15.99 23.51 14.78L23.51 14.78Q23.51 13.65 24.04 12.65Q24.58 11.65 25.54 11.04Q26.49 10.43 27.65 10.43L27.65 10.43Q27.87 10.43 28.24 10.55Q28.60 10.67 28.97 10.96Q29.34 11.24 29.60 11.69L29.60 11.69Q29.71 11.69 29.86 11.80Q30.02 11.91 30.02 12.03L30.02 12.03Q30.02 12.15 29.97 12.28L29.97 12.28L28.95 16.35ZM28.32 12.43Q28.24 12.12 27.99 11.91Q27.75 11.70 27.55 11.70L27.55 11.70Q26.91 11.70 26.34 12.16Q25.77 12.61 25.42 13.29Q25.07 13.96 25.07 14.56L25.07 14.56Q25.07 15.15 25.21 15.53Q25.35 15.90 25.76 15.90L25.76 15.90Q26.11 15.90 26.56 15.69Q27.02 15.48 27.38 15.13Q27.73 14.77 27.85 14.38L27.85 14.38L28.32 12.43ZM36.47 13.97Q34.64 14.28 33.54 14.53L33.54 14.53Q33.21 15.06 33.11 15.25L33.11 15.25Q32.82 15.76 32.58 16.11Q32.35 16.45 32.09 16.72L32.09 16.72Q31.79 17.01 31.60 17.14Q31.42 17.26 31.16 17.26L31.16 17.26Q30.74 17.26 30.43 17.07Q30.11 16.88 30.11 16.69L30.11 16.69Q30.14 16.66 30.42 16.07Q30.70 15.47 31.46 14.57L31.46 14.57Q31.46 14.46 31.39 14.29Q31.32 14.13 31.32 14.10L31.32 14.10Q31.32 13.69 32.59 13.12L32.59 13.12Q33.31 12.05 34.10 11.02Q34.89 9.98 36.04 8.57L36.04 8.57Q36.32 8.22 36.75 7.99Q37.18 7.77 37.62 7.77L37.62 7.77Q38.07 7.77 38.29 7.85Q38.51 7.94 38.58 8.08Q38.64 8.22 38.64 8.47L38.64 8.47Q38.58 8.89 38.57 9.10L38.57 9.10Q38.36 10.79 38.25 12.01Q38.15 13.22 38.15 14.42L38.15 14.42Q38.15 15.53 38.25 16.45L38.25 16.45Q38.21 16.79 37.95 17.06Q37.70 17.33 37.37 17.33L37.37 17.33Q36.72 17.33 36.52 17.01Q36.32 16.69 36.32 15.92L36.32 15.92Q36.32 15.36 36.47 13.97L36.47 13.97ZM34.65 12.92Q34.90 12.87 35.42 12.80L35.42 12.80L36.54 12.63Q36.67 10.68 36.83 9.83L36.83 9.83Q36.29 10.47 34.65 12.92L34.65 12.92ZM41.23 9.83Q40.95 9.73 40.80 9.53Q40.66 9.32 40.66 9.04L40.66 9.04Q40.66 8.64 41.20 8.40L41.20 8.40Q43.20 7.99 45.23 7.83L45.23 7.83Q45.78 8.06 45.78 8.47L45.78 8.47Q45.78 8.72 45.53 8.96Q45.28 9.20 44.95 9.30L44.95 9.30L44.18 9.39Q43.95 10.44 43.09 13.92L43.09 13.92L42.70 15.48L43.78 15.37Q44.32 15.61 44.32 16.02L44.32 16.02Q44.32 16.27 44.07 16.51Q43.82 16.74 43.50 16.84L43.50 16.84L42.94 16.91Q40.88 17.14 39.77 17.37L39.77 17.37Q39.49 17.28 39.35 17.07Q39.20 16.87 39.20 16.59L39.20 16.59Q39.20 16.18 39.75 15.95L39.75 15.95Q40.45 15.81 40.81 15.75L40.81 15.75L42.35 9.63Q41.78 9.72 41.23 9.83L41.23 9.83Z"></path></g><defs data-v-423bf9ae=""><linearGradient data-v-423bf9ae="" gradientTransform="rotate(25)" id="7a80713d-3294-4260-bcea-46e90ad314e0" x1="0%" y1="0%" x2="100%" y2="0%"><stop data-v-423bf9ae="" offset="0%" style="stop-color: rgb(5, 9, 34); stop-opacity: 1;"></stop><stop data-v-423bf9ae="" offset="100%" style="stop-color: rgb(110, 230, 199); stop-opacity: 1;"></stop></linearGradient></defs><g data-v-423bf9ae="" id="af78d500-f340-4022-99f1-b1f40ea0b0c4" transform="matrix(2.0994679464191166,0,0,2.0994679464191166,-36.39525235625642,-51.41413169572212)" stroke="none" fill="url(#7a80713d-3294-4260-bcea-46e90ad314e0)"><path d="M37.447 42.753c-4.912 0-8.908-3.997-8.908-8.91 0-4.912 3.996-8.909 8.908-8.909 4.913 0 8.91 3.997 8.91 8.909 0 4.913-3.997 8.91-8.91 8.91zm0-14.818a5.914 5.914 0 00-5.908 5.909c0 3.259 2.65 5.91 5.908 5.91a5.916 5.916 0 005.91-5.91 5.916 5.916 0 00-5.91-5.909zM26.517 67.802c-4.913 0-8.91-3.997-8.91-8.911 0-4.913 3.997-8.91 8.91-8.91 4.912 0 8.908 3.997 8.908 8.91 0 4.914-3.996 8.911-8.908 8.911zm0-14.821a5.916 5.916 0 00-5.91 5.91 5.917 5.917 0 005.91 5.911 5.916 5.916 0 005.908-5.911 5.917 5.917 0 00-5.908-5.91zM71.448 42.715c-3.95 0-7.163-3.213-7.163-7.162 0-3.95 3.213-7.164 7.163-7.164 3.949 0 7.162 3.213 7.162 7.164 0 3.949-3.213 7.162-7.162 7.162zm0-11.325a4.168 4.168 0 00-4.163 4.164 4.167 4.167 0 004.163 4.162 4.167 4.167 0 004.162-4.162 4.167 4.167 0 00-4.162-4.164zM55.93 62.063c-3.949 0-7.162-3.213-7.162-7.162s3.213-7.162 7.162-7.162c3.95 0 7.163 3.213 7.163 7.162s-3.213 7.162-7.163 7.162zm0-11.323c-2.295 0-4.162 1.867-4.162 4.162s1.867 4.162 4.162 4.162c2.296 0 4.163-1.867 4.163-4.162s-1.867-4.162-4.163-4.162z"></path><path d="M28.482 52.982c-.205 0-.413-.042-.612-.131-.756-.339-1.095-1.226-.756-1.982l5.077-11.339a1.502 1.502 0 011.982-.756c.756.339 1.095 1.226.756 1.982l-5.077 11.339a1.5 1.5 0 01-1.37.887zM59.306 51.86a1.5 1.5 0 01-1.027-2.594l10.146-9.515a1.5 1.5 0 012.053 2.188l-10.146 9.515c-.29.272-.658.406-1.026.406zM53.101 51.515c-.401 0-.801-.16-1.097-.477L41.693 39.995a1.5 1.5 0 012.193-2.047l10.311 11.043a1.5 1.5 0 01-1.096 2.524zM33.924 60.392a1.5 1.5 0 01-.354-2.958l16.343-3.99a1.5 1.5 0 01.71 2.914l-16.343 3.99c-.119.03-.239.044-.356.044z"></path></g><!----></svg>